<?xml version="1.0" encoding="iso-8859-1"?>
<!-- Generator: Adobe Illustrator 19.0.0, SVG Export Plug-In . SVG Version: 6.00 Build 0)  -->
<svg version="1.1" id="Layer_1" xmlns="http://www.w3.org/2000/svg" xmlns:xlink="http://www.w3.org/1999/xlink" x="0px" y="0px"
	 viewBox="0 0 512 512" style="enable-background:new 0 0 512 512;" xml:space="preserve">
<g id="SVGCleanerId_0">
	<g>
		<path d="M324.018,217.035c-30.991-9.792-67.645-14.96-106.009-14.96c-5.683,0-10.296,4.602-10.296,10.296
			c0,5.683,4.613,10.296,10.296,10.296c36.283,0,70.796,4.839,99.8,14.003c1.04,0.319,2.08,0.474,3.109,0.474
			c4.366,0,8.422-2.801,9.812-7.197C332.44,224.531,329.434,218.745,324.018,217.035z"/>
	</g>
</g>
<g>
	<g>
		<circle cx="80.711" cy="244.028" r="11.871"/>
	</g>
</g>
<g>
	<g>
		<circle cx="80.711" cy="244.028" r="11.871"/>
	</g>
</g>
<g>
	<g>
		<g>
			<path d="M324.018,217.035c-30.991-9.792-67.645-14.96-106.009-14.96c-5.683,0-10.296,4.602-10.296,10.296
				c0,5.683,4.613,10.296,10.296,10.296c36.283,0,70.796,4.839,99.8,14.003c1.04,0.319,2.08,0.474,3.109,0.474
				c4.366,0,8.422-2.801,9.812-7.197C332.44,224.531,329.434,218.745,324.018,217.035z"/>
			<path d="M508.38,339.559c-23.496-20.036-36.973-49.226-36.973-80.073c0-30.857,13.478-60.036,36.973-80.073
				c3.017-2.574,4.294-6.641,3.274-10.471c-1.009-3.83-4.129-6.734-8.021-7.485c-6.034-1.153-12.273-1.73-18.564-1.73
				c-33.122,0-63.506,16.185-82.008,42.955c-14.806-11.449-34.214-21.436-57.082-29.344l0.432-16.741
				c0.607-23.403-24.556-42.399-57.277-43.254c-65.792-1.709-128.845,17.472-169.453,51.408
				c-34.06,8.165-63.002,20.479-83.779,35.697C12.417,217.643,0,238.06,0,259.486c0,35.923,34.265,67.81,94.003,87.476
				c18.656,6.157,39.146,10.821,60.922,13.92c19.12,23.609,47.166,37.354,77.622,37.879h0.587c8.412,0,16.35-3.212,22.425-9.071
				c6.209-6.003,9.709-14.054,9.864-22.682l0.072-4.18c6.322-0.669,12.582-1.472,18.76-2.399
				c10.43,14.765,27.367,23.681,45.787,23.681c30.93,0,56.083-25.153,56.083-56.083v-0.371c6.147-3.583,11.81-7.372,16.947-11.357
				c18.502,26.76,48.886,42.945,81.998,42.945c6.291,0,12.53-0.587,18.564-1.74c3.892-0.741,7.012-3.655,8.021-7.485
				C512.673,346.2,511.397,342.123,508.38,339.559z M288.599,133.925c22.26,0.577,37.488,12.129,37.231,22.137l-0.278,11.017
				c-32.597-8.783-69.468-13.395-107.543-13.395c-15.424,0-30.538,0.741-45.262,2.214
				C205.984,140.762,246.581,132.834,288.599,133.925z M20.592,259.486c0-25.195,28.005-49.576,73.607-65.802
				c33.071,37.488,33.092,94.075,0.062,131.594C48,308.805,20.592,284.454,20.592,259.486z M244.831,366.648
				c-0.052,3.13-1.328,6.054-3.583,8.227c-2.255,2.183-5.2,3.336-8.34,3.295c-16.01-0.278-31.187-5.138-44.047-13.807
				c9.637,0.607,19.377,0.927,29.148,0.927c9.03,0,17.998-0.268,26.862-0.783L244.831,366.648z M330.041,363.518
				c-8.062,0-15.671-2.708-21.776-7.454c20.479-4.396,39.187-10.234,55.599-17.287C359.303,353.109,345.866,363.518,330.041,363.518
				z M414.799,295.945c-0.01,0-0.01,0-0.01-0.01c-0.021-0.031-0.041-0.072-0.062-0.103c-0.103-0.216-0.206-0.381-0.309-0.546
				c-0.391-0.659-0.855-1.287-1.421-1.864c-3.943-4.098-10.461-4.221-14.548-0.268c-21.786,20.983-62.137,37.704-110.714,45.879
				c-22.301,3.758-45.756,5.663-69.725,5.663c-19.068,0-37.962-1.225-56.155-3.624c-16.34-2.162-31.887-5.241-46.415-9.184
				c32.247-42.677,32.227-102.137-0.041-144.815c3.717-0.999,7.506-1.956,11.387-2.852c28.386-6.6,59.079-9.946,91.223-9.946
				c41.164,0,80.721,5.611,114.379,16.247c28.633,9.05,51.47,21.251,66.06,35.295c4.098,3.943,10.615,3.82,14.559-0.278
				c0.587-0.607,1.647-2.245,1.719-2.409c12.685-24.484,36.788-40.381,63.918-42.554c-17.884,22.178-27.83,49.926-27.83,78.909
				c0,28.973,9.946,56.721,27.83,78.909C451.556,336.213,427.494,320.367,414.799,295.945z"/>
		</g>
	</g>
</g>
<g>
	<g>
		<circle cx="80.711" cy="244.028" r="11.871"/>
	</g>
</g>
<g>
	<g>
		<path d="M324.018,217.035c-30.991-9.792-67.645-14.96-106.009-14.96c-5.683,0-10.296,4.602-10.296,10.296
			c0,5.683,4.613,10.296,10.296,10.296c36.283,0,70.796,4.839,99.8,14.003c1.04,0.319,2.08,0.474,3.109,0.474
			c4.366,0,8.422-2.801,9.812-7.197C332.44,224.531,329.434,218.745,324.018,217.035z"/>
	</g>
</g>
<g>
</g>
<g>
</g>
<g>
</g>
<g>
</g>
<g>
</g>
<g>
</g>
<g>
</g>
<g>
</g>
<g>
</g>
<g>
</g>
<g>
</g>
<g>
</g>
<g>
</g>
<g>
</g>
<g>
</g>
</svg>
